<?xml version="1.0" encoding="iso-8859-1"?>
<!-- Generator: Adobe Illustrator 19.0.0, SVG Export Plug-In . SVG Version: 6.00 Build 0)  -->
<svg xmlns="http://www.w3.org/2000/svg" xmlns:xlink="http://www.w3.org/1999/xlink" version="1.1" id="Layer_1" x="0px" y="0px" viewBox="0 0 460 460" style="enable-background:new 0 0 460 460;" xml:space="preserve" width="512" height="512">
<g id="XMLID_2607_">
	<rect id="XMLID_1849_" y="76.667" style="fill:#0052B4;" width="460" height="306.667"/>
	<g id="XMLID_1087_">
		<polygon id="XMLID_1038_" style="fill:#F0F0F0;" points="336.696,296.805 319.894,309.012 326.312,289.261 309.511,277.056     330.278,277.056 336.696,257.305 343.113,277.056 363.881,277.056 347.079,289.261 353.497,309.012   "/>
		<polygon id="XMLID_1102_" style="fill:#D80027;" points="336.696,263.777 341.66,279.056 357.724,279.056 344.728,288.498     349.692,303.776 336.696,294.334 323.699,303.776 328.664,288.498 315.667,279.056 331.731,279.056   "/>
	</g>
	<g id="XMLID_1002_">
		<polygon id="XMLID_1096_" style="fill:#F0F0F0;" points="336.696,171.715 322.061,182.349 327.652,165.144 313.016,154.512     331.105,154.512 336.696,137.308 342.287,154.512 360.376,154.512 345.74,165.144 351.331,182.349   "/>
		<polygon id="XMLID_1103_" style="fill:#D80027;" points="336.696,143.78 340.833,156.512 354.22,156.512 343.389,164.38     347.527,177.112 336.696,169.243 325.866,177.112 330.003,164.38 319.172,156.512 332.559,156.512   "/>
	</g>
	<g id="XMLID_1088_">
		<g id="XMLID_1039_">
			<polygon id="XMLID_1004_" style="fill:#F0F0F0;" points="398.101,213.288 385.632,222.348 390.395,207.69 377.925,198.631      393.338,198.631 398.101,183.974 402.863,198.631 418.276,198.631 405.806,207.69 410.57,222.348    "/>
			<polygon id="XMLID_1101_" style="fill:#D80027;" points="398.101,190.445 401.41,200.631 412.12,200.631 403.455,206.926      406.765,217.111 398.101,210.816 389.436,217.111 392.746,206.926 384.081,200.631 394.791,200.631    "/>
		</g>
		<g id="XMLID_1086_">
			<polygon id="XMLID_1003_" style="fill:#F0F0F0;" points="282.301,223.03 265.5,235.237 271.918,215.486 255.116,203.281      275.883,203.281 282.301,183.53 288.718,203.281 309.486,203.281 292.684,215.486 299.102,235.237    "/>
			<polygon id="XMLID_1104_" style="fill:#D80027;" points="282.301,190.001 287.265,205.28 303.33,205.28 290.333,214.722      295.298,230 282.301,220.558 269.304,230 274.269,214.722 261.272,205.28 277.336,205.28    "/>
		</g>
	</g>
	<g id="XMLID_1082_">
		<rect id="XMLID_1424_" x="0.003" y="76.666" style="fill:#F0F0F0;" width="230" height="153.33"/>
		<path id="XMLID_1782_" style="fill:#F0F0F0;" d="M200.708,230c0.245-0.273,0.488-0.547,0.73-0.823    c-0.243,0.277-0.491,0.548-0.737,0.823H200.708z"/>
		<polygon id="XMLID_1749_" style="fill:#0052B4;" points="23.773,83.319 17.121,76.667 0,76.667 0,123.334 3.961,123.334     63.787,123.334   "/>
		<polygon id="XMLID_1411_" style="fill:#0052B4;" points="170.454,76.667 145,76.667 145,102.121   "/>
		<polygon id="XMLID_1408_" style="fill:#0052B4;" points="85,76.667 59.547,76.667 85,102.12   "/>
		<g id="XMLID_1093_">
			<polygon id="XMLID_1094_" style="fill:#0052B4;" points="281,123.334 281,76.667 212.88,76.667 206.228,83.32 166.213,123.334      226.039,123.334    "/>
			<polygon id="XMLID_1404_" style="fill:#0052B4;" points="3.961,183.334 0,183.334 0,258.333 17.12,230 23.772,223.348      63.786,183.334    "/>
			<polygon id="XMLID_1405_" style="fill:#0052B4;" points="85,242.666 85,204.547 59.546,230    "/>
			<polygon id="XMLID_1407_" style="fill:#0052B4;" points="145,251 170.453,230 145,204.547    "/>
			<polygon id="XMLID_1409_" style="fill:#0052B4;" points="166.213,183.336 206.223,223.347 212.883,229.996 236.666,229.996      230.003,183.336    "/>
		</g>
		<polygon id="XMLID_1099_" style="fill:#D80027;" points="230.003,138.336 230.003,168.336 130.003,168.336 130.003,229.996     100.003,229.996 100.003,168.336 0.003,168.336 0.003,138.336 100.003,138.336 100.003,76.666 130.003,76.666 130.003,138.336       "/>
		<polygon id="XMLID_1403_" style="fill:#D80027;" points="205.803,229.996 191.663,229.996 145.003,183.336 159.143,183.336   "/>
		<polygon id="XMLID_1385_" style="fill:#D80027;" points="85,183.334 84.999,183.334 38.333,230 52.475,230 85,197.475   "/>
		<polygon id="XMLID_1342_" style="fill:#D80027;" points="85,123.334 85,123.333 38.334,76.667 24.191,76.667 26.923,79.399     70.858,123.334   "/>
		<polygon id="XMLID_1083_" style="fill:#D80027;" points="145,123.334 145,123.334 191.667,76.667 177.525,76.667 145,109.192       "/>
	</g>
</g>















</svg>
